<?xml version="1.0" encoding="utf-8"?>
<!-- Generator: Adobe Illustrator 16.0.0, SVG Export Plug-In . SVG Version: 6.00 Build 0)  -->
<!DOCTYPE svg PUBLIC "-//W3C//DTD SVG 1.1//EN" "http://www.w3.org/Graphics/SVG/1.1/DTD/svg11.dtd">
<svg version="1.1" id="Capa_1" xmlns="http://www.w3.org/2000/svg" xmlns:xlink="http://www.w3.org/1999/xlink" x="0px" y="0px"
	 width="29.547px" height="24px" viewBox="465.227 268 29.547 24" enable-background="new 465.227 268 29.547 24"
	 xml:space="preserve">
<g>
	<g>
		<path fill="#3C77A7" d="M494.774,270.84c-1.088,0.482-2.255,0.809-3.48,0.955c1.252-0.75,2.209-1.939,2.664-3.352
			c-1.174,0.694-2.471,1.198-3.853,1.472c-1.105-1.18-2.678-1.915-4.423-1.915c-3.348,0-6.062,2.714-6.062,6.06
			c0,0.474,0.053,0.938,0.157,1.381c-5.037-0.253-9.503-2.666-12.492-6.333c-0.523,0.894-0.82,1.935-0.82,3.046
			c0,2.104,1.071,3.958,2.696,5.044c-0.993-0.033-1.928-0.307-2.746-0.761v0.076c0,2.936,2.09,5.386,4.861,5.943
			c-0.508,0.137-1.043,0.213-1.597,0.213c-0.391,0-0.77-0.04-1.141-0.113c0.772,2.409,3.01,4.162,5.661,4.21
			c-2.073,1.624-4.688,2.59-7.527,2.59c-0.49,0-0.971-0.029-1.446-0.083c2.683,1.723,5.868,2.727,9.291,2.727
			c11.15,0,17.245-9.234,17.245-17.244l-0.021-0.785C492.933,273.122,493.963,272.055,494.774,270.84z"/>
	</g>
</g>
</svg>
