<?xml version="1.0" encoding="utf-8"?>
<!-- Generator: Adobe Illustrator 16.0.0, SVG Export Plug-In . SVG Version: 6.00 Build 0)  -->
<!DOCTYPE svg PUBLIC "-//W3C//DTD SVG 1.1//EN" "http://www.w3.org/Graphics/SVG/1.1/DTD/svg11.dtd">
<svg version="1.1" id="Capa_1" xmlns="http://www.w3.org/2000/svg" xmlns:xlink="http://www.w3.org/1999/xlink" x="0px" y="0px"
	 width="17.912px" height="26px" viewBox="357.593 266.057 17.912 26" enable-background="new 357.593 266.057 17.912 26"
	 xml:space="preserve">
<g>
	<path id="Facebook_Places" fill="#2F3C6E" d="M375.081,272.528c-0.092-0.347-0.279-0.716-0.418-1.04
		c-1.664-3.998-5.299-5.431-8.235-5.431c-3.929,0-8.257,2.634-8.834,8.065v1.109c0,0.046,0.016,0.462,0.039,0.67
		c0.324,2.588,2.366,5.338,3.892,7.928c1.641,2.771,3.344,5.5,5.03,8.227c1.041-1.779,2.078-3.582,3.093-5.314
		c0.277-0.51,0.6-1.018,0.877-1.504c0.184-0.322,0.537-0.646,0.699-0.947c1.641-3.004,4.281-6.031,4.281-9.013v-1.225
		C375.504,273.73,375.104,272.598,375.081,272.528z M366.5,278.098c-1.155,0-2.419-0.578-3.043-2.173
		c-0.093-0.254-0.085-0.763-0.085-0.809V274.4c0-2.034,1.727-2.958,3.229-2.958c1.848,0,3.28,1.479,3.28,3.328
		C369.879,276.619,368.348,278.098,366.5,278.098z"/>
</g>
</svg>
