<?xml version="1.0" encoding="utf-8"?>
<!-- Generator: Adobe Illustrator 16.0.0, SVG Export Plug-In . SVG Version: 6.00 Build 0)  -->
<!DOCTYPE svg PUBLIC "-//W3C//DTD SVG 1.1//EN" "http://www.w3.org/Graphics/SVG/1.1/DTD/svg11.dtd">
<svg version="1.1" id="Capa_1" xmlns="http://www.w3.org/2000/svg" xmlns:xlink="http://www.w3.org/1999/xlink" x="0px" y="0px"
	 width="28.256px" height="27px" viewBox="189.541 34.559 28.256 27" enable-background="new 189.541 34.559 28.256 27"
	 xml:space="preserve">
<g>
	<path id="LinkedIn" fill="#3C77A7" d="M217.796,51.112v10.446h-6.055v-9.747c0-2.448-0.877-4.119-3.068-4.119
		c-1.674,0-2.67,1.126-3.107,2.216c-0.16,0.389-0.201,0.931-0.201,1.476v10.175h-6.059c0,0,0.082-16.508,0-18.218h6.057v2.583
		c-0.012,0.019-0.027,0.04-0.039,0.059h0.039v-0.059c0.807-1.24,2.242-3.01,5.461-3.01
		C214.808,42.912,217.796,45.516,217.796,51.112z M192.969,34.559c-2.073,0-3.429,1.359-3.429,3.147
		c0,1.749,1.316,3.149,3.348,3.149h0.041c2.113,0,3.426-1.4,3.426-3.149C196.316,35.918,195.042,34.559,192.969,34.559z
		 M189.901,61.559h6.056V43.34h-6.056V61.559z"/>
</g>
</svg>
