<?xml version="1.0" encoding="utf-8"?>
<!-- Generator: Adobe Illustrator 16.0.0, SVG Export Plug-In . SVG Version: 6.00 Build 0)  -->
<!DOCTYPE svg PUBLIC "-//W3C//DTD SVG 1.1//EN" "http://www.w3.org/Graphics/SVG/1.1/DTD/svg11.dtd">
<svg version="1.1" id="Capa_1" xmlns="http://www.w3.org/2000/svg" xmlns:xlink="http://www.w3.org/1999/xlink" x="0px" y="0px"
	 width="16.219px" height="30px" viewBox="39.952 33.062 16.219 30" enable-background="new 39.952 33.062 16.219 30"
	 xml:space="preserve">
<g>
	<path fill="#3C77A7" d="M55.561,33.068l-3.891-0.006c-4.371,0-7.195,2.898-7.195,7.383v3.404h-3.912
		c-0.338,0-0.611,0.274-0.611,0.612v4.932c0,0.338,0.274,0.612,0.611,0.612h3.912V62.45c0,0.338,0.274,0.611,0.612,0.611h5.104
		c0.337,0,0.611-0.274,0.611-0.611V50.005h4.573c0.338,0,0.612-0.274,0.612-0.612l0.002-4.932c0-0.162-0.065-0.317-0.18-0.432
		c-0.114-0.115-0.271-0.18-0.433-0.18h-4.575v-2.886c0-1.387,0.33-2.091,2.137-2.091l2.621-0.001c0.338,0,0.611-0.274,0.611-0.612
		v-4.58C56.171,33.342,55.898,33.068,55.561,33.068z"/>
</g>
</svg>
