<?xml version="1.0" encoding="utf-8"?>
<!-- Generator: Adobe Illustrator 16.0.0, SVG Export Plug-In . SVG Version: 6.00 Build 0)  -->
<!DOCTYPE svg PUBLIC "-//W3C//DTD SVG 1.1//EN" "http://www.w3.org/Graphics/SVG/1.1/DTD/svg11.dtd">
<svg version="1.1" id="Capa_1" xmlns="http://www.w3.org/2000/svg" xmlns:xlink="http://www.w3.org/1999/xlink" x="0px" y="0px"
	 width="14.723px" height="26px" viewBox="472.638 267 14.723 26" enable-background="new 472.638 267 14.723 26"
	 xml:space="preserve">
<g>
	<path fill="#2F3C6E" d="M485.47,267H474.53c-1.047,0-1.892,0.849-1.892,1.894v22.214c0,1.044,0.845,1.892,1.892,1.892h10.939
		c1.045,0,1.892-0.848,1.892-1.892v-22.214C487.361,267.849,486.515,267,485.47,267z M477.3,268.15h5.401
		c0.137,0,0.247,0.204,0.247,0.456s-0.11,0.457-0.247,0.457H477.3c-0.137,0-0.246-0.205-0.246-0.457S477.163,268.15,477.3,268.15z
		 M480.001,291.131c-0.667,0-1.208-0.542-1.208-1.209s0.542-1.207,1.208-1.207c0.664,0,1.206,0.54,1.206,1.207
		S480.665,291.131,480.001,291.131z M485.944,286.991h-11.888v-16.795h11.888V286.991z"/>
</g>
</svg>
