<?xml version="1.0" encoding="utf-8"?>
<!-- Generator: Adobe Illustrator 16.0.0, SVG Export Plug-In . SVG Version: 6.00 Build 0)  -->
<!DOCTYPE svg PUBLIC "-//W3C//DTD SVG 1.1//EN" "http://www.w3.org/Graphics/SVG/1.1/DTD/svg11.dtd">
<svg version="1.1" id="Layer_1" xmlns="http://www.w3.org/2000/svg" xmlns:xlink="http://www.w3.org/1999/xlink" x="0px" y="0px"
	 width="25.727px" height="21px" viewBox="370.593 269.5 25.727 21" enable-background="new 370.593 269.5 25.727 21"
	 xml:space="preserve">
<g>
	<g id="Layer_5_59_">
		<g>
			<path fill="#83BAF4" d="M385.107,284.972c-0.458,0.281-1.045,0.436-1.651,0.436c-0.607,0-1.193-0.154-1.651-0.436l-7.476-4.585
				c0,0-0.674-0.413-0.674,0.523c0,1.064,0,4.256,0,4.256c0,0.043,0,0.257,0,0.322c0,2.412,4.388,5.012,9.801,5.012
				s9.801-2.6,9.801-5.012c0-0.065,0-0.279,0-0.322c0,0,0-3.385,0-4.514c0-0.752-0.479-0.385-0.479-0.385L385.107,284.972z"/>
			<path fill="#83BAF4" d="M395.889,276.74c0.574-0.352,0.574-0.929,0-1.281l-11.389-5.694c-0.574-0.353-1.514-0.353-2.088,0
				l-11.388,5.694c-0.575,0.353-0.575,0.93,0,1.281l11.388,6.984c0.574,0.353,1.514,0.353,2.088,0"/>
			<path fill="#83BAF4" d="M395.417,287.093c0-1.929,0-7.714,0-7.714s0.006-0.365-0.211-0.244c-0.174,0.096-0.601,0.334-0.751,0.465
				c-0.173,0.15-0.134,0.488-0.134,0.488s0,5.254,0,7.005c0,0.1-0.086,0.146-0.126,0.171c-0.394,0.231-0.659,0.658-0.659,1.148
				c0,0.735,0.597,1.332,1.333,1.332s1.333-0.597,1.333-1.332c0-0.492-0.267-0.92-0.663-1.151
				C395.5,287.238,395.417,287.192,395.417,287.093z"/>
		</g>
	</g>
</g>
</svg>
