<?xml version="1.0" encoding="utf-8"?>
<!-- Generator: Adobe Illustrator 16.0.0, SVG Export Plug-In . SVG Version: 6.00 Build 0)  -->
<!DOCTYPE svg PUBLIC "-//W3C//DTD SVG 1.1//EN" "http://www.w3.org/Graphics/SVG/1.1/DTD/svg11.dtd">
<svg version="1.1" id="Layer_1" xmlns="http://www.w3.org/2000/svg" xmlns:xlink="http://www.w3.org/1999/xlink" x="0px" y="0px"
	 width="27.278px" height="27px" viewBox="396.319 362.357 27.278 27" enable-background="new 396.319 362.357 27.278 27"
	 xml:space="preserve">
<g>
	<path fill="#83BAF4" d="M398.11,372.213c0.144,0.492,0.342,0.966,0.594,1.41l-0.717,0.904c-0.234,0.296-0.208,0.717,0.056,0.983
		l1.235,1.235c0.267,0.266,0.688,0.289,0.983,0.056l0.898-0.712c0.462,0.267,0.954,0.475,1.466,0.621l0.135,1.155
		c0.044,0.375,0.36,0.655,0.734,0.655h1.747c0.375,0,0.69-0.28,0.734-0.655l0.128-1.114c0.55-0.144,1.077-0.357,1.572-0.635
		l0.869,0.688c0.296,0.233,0.717,0.207,0.983-0.056l1.234-1.235c0.267-0.266,0.29-0.688,0.056-0.982l-0.676-0.857
		c0.281-0.486,0.501-1.004,0.646-1.545l1.042-0.121c0.375-0.043,0.655-0.359,0.655-0.734v-1.746c0-0.375-0.28-0.691-0.655-0.734
		l-1.027-0.121c-0.14-0.535-0.351-1.047-0.62-1.527l0.632-0.799c0.234-0.295,0.208-0.717-0.055-0.982l-1.232-1.232
		c-0.266-0.266-0.688-0.289-0.983-0.056l-0.775,0.614c-0.503-0.295-1.042-0.521-1.606-0.672l-0.117-1.004
		c-0.044-0.375-0.36-0.656-0.735-0.656h-1.747c-0.375,0-0.691,0.281-0.734,0.656l-0.117,1.004c-0.58,0.154-1.132,0.389-1.647,0.695
		l-0.805-0.638c-0.295-0.233-0.717-0.208-0.983,0.056l-1.235,1.234c-0.266,0.268-0.29,0.688-0.056,0.984l0.673,0.852
		c-0.27,0.485-0.474,1.003-0.609,1.541l-1.077,0.123c-0.375,0.045-0.656,0.36-0.656,0.734v1.748c0,0.374,0.281,0.689,0.656,0.734
		L398.11,372.213z M404.439,367.487c1.592,0,2.888,1.296,2.888,2.888s-1.296,2.889-2.888,2.889c-1.592,0-2.888-1.297-2.888-2.889
		S402.848,367.487,404.439,367.487z"/>
	<path fill="#83BAF4" d="M421.71,372.644l-0.922-0.778c-0.283-0.24-0.702-0.229-0.972,0.025l-0.509,0.478
		c-0.43-0.208-0.887-0.354-1.357-0.438l-0.144-0.703c-0.073-0.362-0.41-0.614-0.778-0.585l-1.203,0.103
		c-0.368,0.032-0.658,0.334-0.67,0.705l-0.023,0.715c-0.462,0.166-0.898,0.395-1.296,0.682l-0.608-0.404
		c-0.311-0.205-0.724-0.146-0.963,0.138l-0.778,0.927c-0.24,0.285-0.229,0.703,0.026,0.973l0.532,0.567
		c-0.185,0.415-0.316,0.852-0.393,1.299l-0.761,0.155c-0.362,0.073-0.614,0.409-0.585,0.778l0.103,1.203
		c0.032,0.368,0.334,0.658,0.705,0.67l0.822,0.026c0.149,0.392,0.346,0.764,0.582,1.111l-0.459,0.693
		c-0.205,0.311-0.146,0.724,0.138,0.963l0.922,0.778c0.283,0.24,0.702,0.229,0.971-0.026l0.604-0.564
		c0.395,0.185,0.811,0.322,1.237,0.404l0.167,0.825c0.073,0.362,0.409,0.614,0.778,0.585l1.203-0.103
		c0.368-0.032,0.658-0.334,0.67-0.705l0.026-0.808c0.438-0.155,0.854-0.366,1.237-0.626l0.664,0.438
		c0.311,0.205,0.723,0.146,0.963-0.138l0.778-0.922c0.24-0.283,0.229-0.702-0.026-0.971l-0.535-0.568
		c0.196-0.415,0.34-0.854,0.421-1.305l0.731-0.149c0.363-0.073,0.615-0.409,0.586-0.778l-0.103-1.202
		c-0.032-0.369-0.334-0.659-0.705-0.671l-0.734-0.022c-0.152-0.428-0.357-0.832-0.612-1.206l0.401-0.603
		C422.053,373.299,421.994,372.883,421.71,372.644z M417.178,379.596c-1.3,0.111-2.446-0.857-2.555-2.156
		c-0.111-1.299,0.857-2.446,2.156-2.555c1.3-0.111,2.446,0.857,2.555,2.156C419.445,378.341,418.477,379.487,417.178,379.596z"/>
	<path fill="#83BAF4" d="M402.318,382.832c-0.369,0.038-0.653,0.349-0.656,0.72l-0.009,0.74c-0.006,0.372,0.27,0.688,0.638,0.735
		l0.544,0.069c0.091,0.331,0.22,0.647,0.387,0.945l-0.352,0.434c-0.234,0.289-0.216,0.705,0.044,0.972l0.518,0.529
		c0.26,0.267,0.676,0.296,0.972,0.067l0.436-0.337c0.307,0.182,0.632,0.325,0.971,0.425l0.059,0.562
		c0.038,0.369,0.348,0.652,0.72,0.655l0.74,0.009c0.372,0.006,0.688-0.269,0.735-0.638l0.067-0.532
		c0.369-0.091,0.72-0.229,1.053-0.41l0.41,0.331c0.29,0.233,0.705,0.216,0.972-0.044l0.529-0.519
		c0.267-0.26,0.296-0.676,0.067-0.971l-0.313-0.407c0.193-0.322,0.343-0.664,0.445-1.024l0.485-0.05
		c0.369-0.038,0.652-0.348,0.655-0.72l0.009-0.74c0.006-0.371-0.269-0.688-0.638-0.734l-0.474-0.062
		c-0.091-0.356-0.226-0.702-0.401-1.024l0.296-0.362c0.234-0.29,0.217-0.705-0.044-0.972l-0.518-0.529
		c-0.261-0.267-0.676-0.296-0.972-0.067l-0.354,0.271c-0.333-0.201-0.69-0.356-1.065-0.462l-0.047-0.459
		c-0.038-0.369-0.348-0.653-0.72-0.656l-0.74-0.009c-0.372-0.006-0.688,0.27-0.734,0.639l-0.059,0.456
		c-0.386,0.1-0.758,0.252-1.104,0.451l-0.366-0.299c-0.29-0.234-0.705-0.217-0.971,0.044l-0.533,0.521
		c-0.266,0.261-0.295,0.676-0.067,0.972l0.313,0.404c-0.181,0.321-0.325,0.664-0.418,1.023L402.318,382.832z M407.097,381.995
		c1.062,0.012,1.914,0.887,1.902,1.949s-0.887,1.913-1.949,1.901c-1.062-0.011-1.914-0.886-1.902-1.948
		S406.035,381.983,407.097,381.995z"/>
</g>
</svg>
