<?xml version="1.0" encoding="utf-8"?>
<!-- Generator: Adobe Illustrator 16.0.0, SVG Export Plug-In . SVG Version: 6.00 Build 0)  -->
<!DOCTYPE svg PUBLIC "-//W3C//DTD SVG 1.1//EN" "http://www.w3.org/Graphics/SVG/1.1/DTD/svg11.dtd">
<svg version="1.1" id="Layer_1" xmlns="http://www.w3.org/2000/svg" xmlns:xlink="http://www.w3.org/1999/xlink" x="0px" y="0px"
	 width="24.375px" height="20px" viewBox="467.812 360.439 24.375 20" enable-background="new 467.812 360.439 24.375 20"
	 xml:space="preserve">
<g>
	<g>
		<g>
			<path fill="#83BAF4" d="M481.195,372.701v-0.541c0-0.66-0.535-1.195-1.195-1.195c-0.66,0-1.195,0.535-1.195,1.195v0.541
				c0,0.66,0.535,1.195,1.195,1.195C480.66,373.896,481.195,373.361,481.195,372.701z"/>
			<path fill="#83BAF4" d="M482.016,373.363c-0.266,0.867-1.063,1.504-2.015,1.504c-0.951,0-1.75-0.637-2.015-1.504h-8.232
				c-0.519,0-1.011-0.121-1.45-0.33v5.465c0,1.066,0.873,1.941,1.939,1.941h19.515c1.066,0,1.939-0.875,1.939-1.941v-5.465
				c-0.439,0.209-0.932,0.33-1.449,0.33H482.016L482.016,373.363z"/>
			<path fill="#83BAF4" d="M490.166,363.548h-4.658c-0.281-1.759-1.807-3.108-3.643-3.108h-3.732c-1.838,0-3.36,1.35-3.643,3.108
				h-4.657c-1.112,0-2.021,0.873-2.021,1.94v4.479c0,1.072,0.869,1.941,1.94,1.941h8.141c0.027-0.559,0.268-1.061,0.646-1.424
				c0.012-0.01,0.025-0.02,0.037-0.029c0.084-0.078,0.172-0.15,0.267-0.214c0.034-0.022,0.073-0.038,0.108-0.059
				c0.078-0.045,0.156-0.093,0.241-0.127c0.066-0.028,0.138-0.044,0.208-0.064c0.061-0.019,0.117-0.042,0.18-0.054
				c0.137-0.028,0.276-0.043,0.42-0.043c0.143,0,0.283,0.016,0.418,0.043c0.063,0.012,0.119,0.035,0.179,0.054
				c0.07,0.021,0.143,0.036,0.209,0.065c0.084,0.035,0.162,0.081,0.24,0.126c0.035,0.021,0.074,0.036,0.109,0.06
				c0.096,0.063,0.182,0.135,0.266,0.213c0.012,0.01,0.027,0.02,0.039,0.031c0.379,0.362,0.617,0.863,0.645,1.422h8.141
				c1.072,0,1.941-0.869,1.941-1.939v-4.479C492.188,364.421,491.277,363.548,490.166,363.548z M476.36,363.548
				c0.248-0.747,0.945-1.292,1.774-1.292h3.731c0.83,0,1.527,0.545,1.775,1.292H476.36z"/>
		</g>
	</g>
</g>
</svg>
