<?xml version="1.0" encoding="utf-8"?>
<!-- Generator: Adobe Illustrator 16.0.0, SVG Export Plug-In . SVG Version: 6.00 Build 0)  -->
<!DOCTYPE svg PUBLIC "-//W3C//DTD SVG 1.1//EN" "http://www.w3.org/Graphics/SVG/1.1/DTD/svg11.dtd">
<svg version="1.1" id="Capa_1" xmlns="http://www.w3.org/2000/svg" xmlns:xlink="http://www.w3.org/1999/xlink" x="0px" y="0px"
	 width="26.667px" height="20px" viewBox="573.833 270.605 26.667 20" enable-background="new 573.833 270.605 26.667 20"
	 xml:space="preserve">
<g>
	<path fill="#3D76A7" d="M600.5,287.271c0,0.584-0.164,1.127-0.428,1.604l-8.42-9.42l8.328-7.287c0.324,0.514,0.52,1.118,0.52,1.771
		V287.271L600.5,287.271z M587.166,281.166l11.59-10.141c-0.477-0.26-1.012-0.42-1.59-0.42h-20c-0.578,0-1.113,0.16-1.588,0.42
		L587.166,281.166z M590.396,280.552l-2.682,2.349c-0.156,0.137-0.352,0.205-0.549,0.205c-0.195,0-0.391-0.068-0.548-0.205
		l-2.683-2.349l-8.527,9.54c0.512,0.322,1.11,0.514,1.758,0.514h20c0.648,0,1.248-0.191,1.758-0.514L590.396,280.552z
		 M574.353,272.168c-0.324,0.514-0.52,1.118-0.52,1.771v13.333c0,0.586,0.163,1.127,0.429,1.604l8.418-9.422L574.353,272.168z"/>
</g>
</svg>
