<?xml version="1.0" encoding="utf-8"?>
<!-- Generator: Adobe Illustrator 16.0.0, SVG Export Plug-In . SVG Version: 6.00 Build 0)  -->
<!DOCTYPE svg PUBLIC "-//W3C//DTD SVG 1.1//EN" "http://www.w3.org/Graphics/SVG/1.1/DTD/svg11.dtd">
<svg version="1.1" id="Layer_1" xmlns="http://www.w3.org/2000/svg" xmlns:xlink="http://www.w3.org/1999/xlink" x="0px" y="0px"
	 width="27.3px" height="21px" viewBox="466.35 269.5 27.3 21" enable-background="new 466.35 269.5 27.3 21" xml:space="preserve">
<path fill="#83BAF4" d="M466.665,281.05c-0.21-0.21-0.315-0.524-0.315-0.735c0-0.21,0.105-0.525,0.315-0.735l1.47-1.47
	c0.42-0.42,1.05-0.42,1.47,0l0.105,0.105l5.775,6.195c0.21,0.21,0.525,0.21,0.735,0l14.07-14.595h0.105l0,0
	c0.42-0.42,1.05-0.42,1.47,0l1.47,1.47c0.42,0.42,0.42,1.05,0,1.47l0,0l-16.8,17.431c-0.21,0.21-0.42,0.314-0.735,0.314
	s-0.525-0.104-0.735-0.314l-8.19-8.82L466.665,281.05L466.665,281.05z"/>
</svg>
