<?xml version="1.0" encoding="utf-8"?>
<!-- Generator: Adobe Illustrator 16.0.0, SVG Export Plug-In . SVG Version: 6.00 Build 0)  -->
<!DOCTYPE svg PUBLIC "-//W3C//DTD SVG 1.1//EN" "http://www.w3.org/Graphics/SVG/1.1/DTD/svg11.dtd">
<svg version="1.1" id="Layer_1" xmlns="http://www.w3.org/2000/svg" xmlns:xlink="http://www.w3.org/1999/xlink" x="0px" y="0px"
	 width="34.736px" height="22px" viewBox="462.632 269 34.736 22" enable-background="new 462.632 269 34.736 22"
	 xml:space="preserve">
<g>
	<g>
		<g>
			<path fill="#3C77A7" d="M484.296,277.105h-11.243v5.21h5.654c-0.76,2.161-2.602,3.473-4.956,3.473
				c-3.147,0-5.909-2.706-5.909-5.791c0-3.083,2.762-5.787,5.909-5.787c1.505,0,2.776,0.48,3.678,1.389l0.41,0.413l3.877-3.877
				l-0.421-0.409c-1.836-1.783-4.444-2.726-7.544-2.726c-6.234,0-11.119,4.831-11.119,10.997c0,6.17,4.884,11.003,11.119,11.003
				c5.747,0,9.83-3.372,10.656-8.8c0.108-0.704,0.163-1.445,0.163-2.203c0-0.832-0.071-1.734-0.19-2.414L484.296,277.105z"/>
			<polygon fill="#3C77A7" points="493.897,277.102 493.897,273.631 489.842,273.631 489.842,277.105 486.368,277.105 
				486.368,281.157 489.842,281.157 489.842,284.631 493.897,284.631 493.897,281.157 497.368,281.157 497.368,277.102 			"/>
		</g>
	</g>
</g>
</svg>
