<?xml version="1.0" encoding="utf-8"?>
<!-- Generator: Adobe Illustrator 16.0.0, SVG Export Plug-In . SVG Version: 6.00 Build 0)  -->
<!DOCTYPE svg PUBLIC "-//W3C//DTD SVG 1.1//EN" "http://www.w3.org/Graphics/SVG/1.1/DTD/svg11.dtd">
<svg version="1.1" id="Layer_1" xmlns="http://www.w3.org/2000/svg" xmlns:xlink="http://www.w3.org/1999/xlink" x="0px" y="0px"
	 width="25.042px" height="32px" viewBox="593.935 264 25.042 32" enable-background="new 593.935 264 25.042 32"
	 xml:space="preserve">
<g>
	<g>
		<g>
			<path fill="#83BAF4" d="M604.639,288.997c-1.247,1.152-2.973,1.411-4.503,0.674c-0.554-0.267-1.021-0.634-1.386-1.075
				l-2.084,4.609c-0.095,0.21,0.012,0.368,0.061,0.426c0.051,0.059,0.19,0.187,0.412,0.125l1.518-0.422
				c0.172-0.048,0.348-0.071,0.52-0.071c0.727,0,1.411,0.411,1.74,1.093l0.686,1.418c0.1,0.207,0.287,0.229,0.365,0.227
				c0.077-0.001,0.266-0.025,0.36-0.235l3.314-7.332C605.277,288.538,604.933,288.726,604.639,288.997z"/>
		</g>
	</g>
	<g>
		<g>
			<path fill="#83BAF4" d="M616.245,293.205l-2.084-4.609c-0.365,0.441-0.832,0.809-1.386,1.075
				c-1.53,0.737-3.256,0.479-4.503-0.674c-0.294-0.271-0.639-0.459-1.003-0.564l3.314,7.332c0.095,0.21,0.283,0.234,0.36,0.235
				c0.078,0.002,0.266-0.02,0.365-0.227l0.686-1.418c0.329-0.682,1.014-1.093,1.74-1.093c0.173,0,0.348,0.023,0.521,0.071
				l1.517,0.422c0.222,0.063,0.362-0.066,0.412-0.125S616.34,293.415,616.245,293.205z"/>
		</g>
	</g>
	<g>
		<g>
			<path fill="#83BAF4" d="M617.882,276.987c-1.73-1.185-2.268-3.538-1.223-5.356c0.629-1.094,0.302-2.174-0.214-2.82
				s-1.496-1.205-2.701-0.836c-2.006,0.614-4.18-0.433-4.95-2.384c-0.463-1.173-1.512-1.591-2.339-1.591
				c-0.826,0-1.875,0.418-2.338,1.591c-0.77,1.951-2.944,2.998-4.949,2.384c-1.206-0.369-2.186,0.189-2.701,0.836
				s-0.843,1.727-0.215,2.82c1.045,1.818,0.508,4.172-1.223,5.356c-1.04,0.712-1.215,1.827-1.03,2.634
				c0.184,0.806,0.825,1.734,2.071,1.925c2.073,0.317,3.578,2.204,3.426,4.296c-0.092,1.258,0.671,2.089,1.416,2.447
				c0.744,0.359,1.871,0.438,2.797-0.418c0.77-0.712,1.758-1.068,2.746-1.068c0.989,0,1.978,0.356,2.748,1.068
				c0.926,0.855,2.052,0.777,2.797,0.418c0.744-0.358,1.508-1.189,1.416-2.447c-0.152-2.092,1.353-3.979,3.426-4.296
				c1.246-0.19,1.887-1.119,2.071-1.925C619.097,278.814,618.923,277.699,617.882,276.987z M606.455,284.995
				c-4.535,0-8.226-3.69-8.226-8.226c0-4.536,3.69-8.227,8.226-8.227c4.537,0,8.227,3.69,8.227,8.227
				C614.682,281.305,610.991,284.995,606.455,284.995z"/>
		</g>
	</g>
	<g>
		<g>
			<path fill="#83BAF4" d="M606.455,270.076c-3.689,0-6.691,3.003-6.691,6.693c0,3.689,3.002,6.692,6.691,6.692
				c3.69,0,6.693-3.003,6.693-6.692C613.148,273.079,610.146,270.076,606.455,270.076z M609.886,276.12l-4.165,3.042
				c-0.133,0.097-0.291,0.148-0.453,0.148c-0.041,0-0.083-0.004-0.125-0.011c-0.203-0.034-0.384-0.147-0.502-0.315l-1.246-1.774
				c-0.244-0.347-0.16-0.825,0.187-1.068s0.825-0.159,1.068,0.187l0.797,1.135l3.534-2.581c0.343-0.25,0.822-0.175,1.072,0.167
				C610.302,275.391,610.228,275.871,609.886,276.12z"/>
		</g>
	</g>
</g>
</svg>
