<?xml version="1.0" encoding="utf-8"?>
<!-- Generator: Adobe Illustrator 16.0.0, SVG Export Plug-In . SVG Version: 6.00 Build 0)  -->
<!DOCTYPE svg PUBLIC "-//W3C//DTD SVG 1.1//EN" "http://www.w3.org/Graphics/SVG/1.1/DTD/svg11.dtd">
<svg version="1.1" id="Layer_1" xmlns="http://www.w3.org/2000/svg" xmlns:xlink="http://www.w3.org/1999/xlink" x="0px" y="0px"
	 width="48.483px" height="55.061px" viewBox="0 0 48.483 55.061" enable-background="new 0 0 48.483 55.061" xml:space="preserve">
<g>
	<g>
		<path fill="#FFFFFF" d="M17.15,28.689l-3.367,3.707v5.036h-3.339V17.626h3.339v10.243l9.45-10.243h3.933l-7.667,8.46l8.177,11.347
			h-4.018L17.15,28.689z"/>
		<path fill="#FFFFFF" d="M41.499,34.404v3.028H29.586V17.626h3.339v16.778H41.499z"/>
	</g>
	<g>
		<path fill="#FFFFFF" d="M43.709,8.047c-2.526-2.527-5.468-4.503-8.745-5.889C31.573,0.724,27.97,0,24.256,0
			c-3.714,0-7.316,0.729-10.709,2.163C10.271,3.549,7.33,5.533,4.803,8.06c-1.096,1.097-2.088,2.271-2.975,3.517
			c0.37,0.124,0.704,0.329,0.98,0.593C7.6,5.491,15.428,1.118,24.256,1.118c8.849,0,16.694,4.069,21.482,11.069h1.388
			C46.132,10.188,44.991,9.328,43.709,8.047z"/>
		<circle fill="#FFFFFF" cx="0.996" cy="14.064" r="0.996"/>
		<path fill="#FFFFFF" d="M45.719,43.188h-0.045c-4.794,6-12.608,10.994-21.417,10.994c-8.81,0-16.624-4.994-21.418-10.994H1.445
			c0.981,1,2.103,2.667,3.358,3.923c2.526,2.526,5.468,4.438,8.744,5.823c3.393,1.436,6.995,2.127,10.709,2.127
			c3.713,0,7.316-0.746,10.708-2.181c3.276-1.386,6.218-3.377,8.745-5.903c1.093-1.094,2.085-2.127,2.97-3.369
			C46.319,43.49,45.992,43.188,45.719,43.188z"/>
		<circle fill="#FFFFFF" cx="47.487" cy="40.963" r="0.996"/>
	</g>
</g>
</svg>
