<?xml version="1.0" encoding="utf-8"?>
<!-- Generator: Adobe Illustrator 16.0.0, SVG Export Plug-In . SVG Version: 6.00 Build 0)  -->
<!DOCTYPE svg PUBLIC "-//W3C//DTD SVG 1.1//EN" "http://www.w3.org/Graphics/SVG/1.1/DTD/svg11.dtd">
<svg version="1.1" id="Layer_1" xmlns="http://www.w3.org/2000/svg" xmlns:xlink="http://www.w3.org/1999/xlink" x="0px" y="0px"
	 width="151.454px" height="172.02px" viewBox="0 0 151.454 172.02" enable-background="new 0 0 151.454 172.02"
	 xml:space="preserve">
<g>
	<g>
		<path fill="#FFFFFF" d="M53.573,89.673l-10.519,11.58v15.731h-10.43V55.112h10.43V87.11l29.521-31.998h12.286L60.91,81.54
			l25.543,35.444H73.902L53.573,89.673z"/>
		<path fill="#FFFFFF" d="M129.635,107.525v9.459H92.423V55.112h10.431v52.413H129.635z"/>
	</g>
	<g>
		<path fill="#FFFFFF" d="M136.539,24.982c-7.892-7.896-17.081-13.963-27.316-18.293C98.628,2.209,87.373,0,75.772,0
			C64.171,0,52.918,2.303,42.319,6.783c-10.233,4.328-19.423,10.54-27.314,18.433c-3.423,3.426-6.522,7.102-9.293,10.991
			c1.156,0.388,2.198,1.032,3.062,1.855C23.741,17.202,48.195,3.336,75.772,3.336c27.642,0,52.149,13.373,67.107,34.373h4.337
			C144.109,31.709,140.544,28.984,136.539,24.982z"/>
		<path fill="#FFFFFF" d="M6.225,43.986c0,1.721-1.394,3.115-3.113,3.115C1.393,47.102,0,45.707,0,43.986
			c0-1.717,1.393-3.111,3.111-3.111C4.831,40.875,6.225,42.27,6.225,43.986z"/>
		<path fill="#FFFFFF" d="M142.817,134.709h-0.14c-14.976,19-39.387,34.344-66.905,34.344c-27.52,0-51.931-15.344-66.906-34.344
			H4.514c3.064,3,6.567,8.457,10.491,12.381c7.892,7.893,17.081,13.929,27.314,18.255c10.599,4.484,21.852,6.675,33.453,6.675
			c11.601,0,22.855-2.314,33.45-6.795c10.235-4.329,19.425-10.541,27.316-18.434c3.416-3.416,6.514-6.768,9.279-10.648
			C144.692,135.777,143.672,134.709,142.817,134.709z"/>
		<circle fill="#FFFFFF" cx="148.342" cy="128.014" r="3.112"/>
	</g>
</g>
</svg>
