<?xml version="1.0" encoding="utf-8"?>
<!-- Generator: Adobe Illustrator 16.0.0, SVG Export Plug-In . SVG Version: 6.00 Build 0)  -->
<!DOCTYPE svg PUBLIC "-//W3C//DTD SVG 1.1//EN" "http://www.w3.org/Graphics/SVG/1.1/DTD/svg11.dtd">
<svg version="1.1" id="Layer_1" xmlns="http://www.w3.org/2000/svg" xmlns:xlink="http://www.w3.org/1999/xlink" x="0px" y="0px"
	 width="61.632px" height="69.941px" viewBox="0 0 61.632 69.941" enable-background="new 0 0 61.632 69.941" xml:space="preserve">
<g>
	<g>
		<path fill="#3C77A7" d="M21.801,36.446l-4.28,4.713v6.401h-4.244V22.383h4.244v13.021l12.013-13.021h5l-9.747,10.755
			l10.394,14.423h-5.107L21.801,36.446z"/>
		<path fill="#3C77A7" d="M52.753,43.712v3.849H37.61V22.383h4.245v21.329H52.753z"/>
	</g>
	<g>
		<path fill="#3C77A7" d="M55.563,10.3c-3.212-3.213-6.951-5.771-11.116-7.532C40.135,0.943,35.555,0,30.834,0
			c-4.721,0-9.3,0.916-13.613,2.738C13.057,4.5,9.317,7.016,6.106,10.228c-1.393,1.395-2.654,2.885-3.782,4.468
			c0.47,0.158,0.895,0.418,1.246,0.752C9.661,6.959,19.612,1.492,30.834,1.492c11.248,0,21.221,5.163,27.308,14.163h1.765
			C58.643,12.655,57.192,11.929,55.563,10.3z"/>
		<circle fill="#3C77A7" cx="1.267" cy="17.855" r="1.267"/>
		<path fill="#3C77A7" d="M58.117,54.655H58.06c-6.094,8-16.027,13.976-27.226,13.976c-11.199,0-21.132-5.976-27.226-13.976H1.837
			c1.247,1,2.673,3.5,4.27,5.098c3.211,3.211,6.951,5.697,11.115,7.458c4.313,1.824,8.892,2.73,13.613,2.73
			c4.721,0,9.3-0.935,13.612-2.758c4.165-1.762,7.904-4.286,11.116-7.498c1.39-1.39,2.65-2.811,3.776-4.39
			C58.88,55.147,58.465,54.655,58.117,54.655z"/>
		<circle fill="#3C77A7" cx="60.365" cy="52.049" r="1.267"/>
	</g>
</g>
</svg>
